<svg width="37" height="60" viewBox="0 0 37 60" fill="none" xmlns="http://www.w3.org/2000/svg">
<path d="M3.22461 54H4.75391V41.3174H3.22461V54ZM10.6074 54.1582C13.1299 54.1582 14.835 52.3389 14.835 49.4297C14.835 46.5117 13.1299 44.7012 10.6074 44.7012C8.07617 44.7012 6.37109 46.5117 6.37109 49.4297C6.37109 52.3389 8.07617 54.1582 10.6074 54.1582ZM10.6074 52.8135C8.99023 52.8135 7.92676 51.583 7.92676 49.4297C7.92676 47.2764 8.99023 46.0459 10.6074 46.0459C12.2246 46.0459 13.2793 47.2764 13.2793 49.4297C13.2793 51.583 12.2246 52.8135 10.6074 52.8135ZM20.0996 52.7256C18.5264 52.7256 17.498 51.4424 17.498 49.3945C17.498 47.3467 18.5264 46.0459 20.0996 46.0459C21.6904 46.0459 22.7539 47.3818 22.7539 49.3945C22.7539 51.4072 21.6904 52.7256 20.0996 52.7256ZM20.1523 57.4453C22.6748 57.4453 24.2832 55.9951 24.2832 53.8154V44.8594H22.8242V46.3975H22.7979C22.1914 45.334 21.1191 44.7012 19.8271 44.7012C17.4629 44.7012 15.9336 46.5293 15.9336 49.3945C15.9336 52.2334 17.4629 54.0703 19.792 54.0703C21.0752 54.0703 22.1562 53.4199 22.7188 52.4268H22.7539V53.8682C22.7539 55.2305 21.7959 56.1445 20.2139 56.1445C19.0713 56.1445 18.166 55.5908 17.8672 54.7559H16.2939C16.5488 56.3115 18.1396 57.4453 20.1523 57.4453ZM30.0664 54.1582C32.5889 54.1582 34.2939 52.3389 34.2939 49.4297C34.2939 46.5117 32.5889 44.7012 30.0664 44.7012C27.5352 44.7012 25.8301 46.5117 25.8301 49.4297C25.8301 52.3389 27.5352 54.1582 30.0664 54.1582ZM30.0664 52.8135C28.4492 52.8135 27.3857 51.583 27.3857 49.4297C27.3857 47.2764 28.4492 46.0459 30.0664 46.0459C31.6836 46.0459 32.7383 47.2764 32.7383 49.4297C32.7383 51.583 31.6836 52.8135 30.0664 52.8135Z" fill="white"/>
<g clip-path="url(#clip0)">
<path d="M26.7411 18.8834C26.4284 18.9257 26.1129 18.9417 25.7977 18.9437C22.666 18.9236 19.7522 17.0455 18.3993 14.1208C17.086 11.282 17.4625 7.91733 19.2312 5.43504C16.2983 5.5239 13.4157 6.41975 11.0367 8.24687C9.85465 9.15476 8.86329 10.3351 8.17058 11.6762C7.99611 12.014 7.87092 12.3768 7.64786 12.6852C7.37768 13.0588 7.02834 13.3578 6.61136 13.5411C5.71835 13.9335 4.70422 13.7972 3.94562 13.166C3.30394 12.632 2.95467 11.7822 3.00727 10.9356C3.06149 10.0631 3.58082 9.21388 4.00384 8.47923C4.90234 6.91883 6.09839 5.54251 7.45861 4.39743C10.4906 1.84504 14.2875 0.455145 18.1683 0.158346C22.5854 -0.179455 27.0762 0.982136 30.6755 3.67838C30.7124 3.70602 30.7475 3.73841 30.7804 3.77382C32.1184 4.86516 33.1061 6.2915 33.6296 7.97673C34.1419 9.62599 34.1085 11.4611 33.5926 13.1036C32.6052 16.2474 29.8853 18.4588 26.7411 18.8834ZM30.0555 4.77182C30.0347 4.75531 30.0144 4.73705 29.9945 4.71802C26.9837 2.4851 23.4278 1.39648 19.7311 1.36534C15.8685 1.33281 12.0288 2.50532 8.88675 4.84144C7.49284 5.87779 6.27157 7.18554 5.32861 8.66723C4.90376 9.33479 4.3889 10.1249 4.22996 10.9165C4.09589 11.5843 4.57726 12.2402 5.16519 12.4462C5.92013 12.7108 6.58201 12.2233 6.88221 11.5345C7.18769 10.8336 7.58496 10.178 8.03732 9.56875C9.00997 8.2589 10.2363 7.18505 11.6089 6.34328C14.2864 4.70123 17.4665 4.03003 20.5585 4.18963C21.0723 4.21615 21.3891 4.86537 20.9898 5.2646C18.8474 7.40699 18.1978 10.7724 19.4916 13.569C20.6474 16.0674 23.1234 17.6671 25.7978 17.6843C28.5949 17.6664 31.2018 15.9003 32.2608 13.2085C33.4271 10.2444 32.5238 6.72348 30.0555 4.77182Z" fill="white"/>
<path d="M25.7983 14.8856C24.1871 14.8645 22.6968 13.93 21.9756 12.4338C21.2358 10.8992 21.4539 9.03448 22.4908 7.70616C23.5209 6.38651 25.1961 5.83713 26.7854 6.19522C28.3389 6.5452 29.5769 7.88765 29.95 9.46184C30.6006 12.2077 28.4886 14.8503 25.7983 14.8856ZM27.0745 7.62213C25.8386 6.98725 24.2259 7.42363 23.3953 8.54121C22.5292 9.70672 22.5407 11.3763 23.4653 12.5046C24.0497 13.2178 24.8978 13.6144 25.7983 13.6261C27.233 13.6073 28.4339 12.5973 28.7734 11.1648C29.1169 9.71547 28.3291 8.26659 27.0745 7.62213Z" fill="white"/>
<path d="M29.7872 27.3892C26.8155 29.9965 23.047 31.4442 19.1869 31.811C14.6588 32.2413 10.0175 31.089 6.32172 28.3205C6.28485 28.2929 6.24974 28.2605 6.21687 28.2251C4.87888 27.1338 3.89119 25.7074 3.36765 24.0223C2.85523 22.373 2.88878 20.5379 3.40466 18.8954C4.39208 15.7515 7.11198 13.5401 10.2562 13.1155C10.5689 13.0733 10.8844 13.0573 11.1996 13.0553C14.3313 13.0754 17.245 14.9536 18.598 17.8782C19.9112 20.717 19.5348 24.0816 17.7661 26.5639C20.699 26.4751 23.5816 25.5792 25.9606 23.7521C27.1427 22.8442 28.1339 21.6639 28.8267 20.3228C28.9976 19.9917 29.1208 19.6353 29.3364 19.3311C29.5937 18.9679 29.9288 18.6742 30.3252 18.4842C31.1187 18.1038 32.0269 18.165 32.7766 18.6256C33.5194 19.0821 33.9322 19.9146 33.9947 20.7845C34.0575 21.6585 33.5478 22.5146 33.1477 23.2467C32.2871 24.8218 31.1195 26.2204 29.7872 27.3892ZM31.8801 19.5686C31.247 19.3327 30.5733 19.6221 30.2365 20.2061C30.054 20.5227 29.9267 20.8772 29.7523 21.2002C29.5636 21.5496 29.3497 21.8839 29.1223 22.2075C28.1873 23.5383 26.9831 24.6336 25.635 25.5019C22.9115 27.2561 19.6232 27.9737 16.4388 27.8093C15.925 27.7828 15.6082 27.1336 16.0074 26.7343C18.1499 24.5919 18.7994 21.2265 17.5056 18.4299C16.3498 15.9316 13.8739 14.3318 11.1995 14.3146C8.40231 14.3325 5.79541 16.0985 4.73634 18.7904C3.57011 21.7546 4.47328 25.2754 6.94164 27.2271C6.96252 27.2436 6.98279 27.2619 7.00271 27.2809C10.0135 29.5138 13.5694 30.6024 17.2661 30.6336C21.1287 30.6661 24.9684 29.4936 28.1105 27.1575C29.5044 26.1211 30.7257 24.8134 31.6686 23.3317C32.0935 22.6641 32.6083 21.8741 32.7672 21.0825C32.8955 20.4435 32.4467 19.7797 31.8801 19.5686Z" fill="white"/>
<path d="M10.2125 25.8037C8.659 25.4538 7.42092 24.1113 7.04793 22.5371C6.39717 19.7912 8.50927 17.1485 11.1995 17.1133C12.8108 17.1344 14.301 18.069 15.0223 19.5651C15.7621 21.0997 15.5439 22.9644 14.5071 24.2928C13.477 25.6125 11.8017 26.1618 10.2125 25.8037ZM13.5325 19.4943C12.9481 18.7811 12.1 18.3845 11.1995 18.3727C9.76484 18.3915 8.56383 19.4015 8.22432 20.834C7.88088 22.2834 8.66869 23.7323 9.92324 24.3767C11.1592 25.0116 12.7718 24.5753 13.6024 23.4577C14.4686 22.2922 14.457 20.6226 13.5325 19.4943Z" fill="white"/>
</g>
<defs>
<clipPath id="clip0">
<rect width="31" height="32" fill="white" transform="matrix(-1 0 0 1 34 0)"/>
</clipPath>
</defs>
</svg>
