<svg width="29" height="29" viewBox="0 0 29 29" fill="none" xmlns="http://www.w3.org/2000/svg">
<path d="M26.7969 25.6953H2.20308C1.68602 25.6953 1.28137 26.1224 1.28137 26.617C1.28137 27.1116 1.7085 27.5387 2.20308 27.5387H26.8194C27.3364 27.5387 27.7411 27.1116 27.7411 26.617C27.7411 26.1224 27.3139 25.6953 26.7969 25.6953Z" fill="#FF4A43"/>
<path d="M1.28139 17.535L1.25891 21.9187C1.25891 22.166 1.34883 22.4133 1.52868 22.5931C1.70852 22.773 1.93333 22.8629 2.18062 22.8629L6.54186 22.8404C6.78914 22.8404 7.01395 22.7505 7.19379 22.5706L22.2558 7.50863C22.6155 7.14894 22.6155 6.56445 22.2558 6.18228L17.9395 1.82104C17.5798 1.46135 16.9953 1.46135 16.6132 1.82104L13.6008 4.85592L1.55116 16.8831C1.39379 17.0629 1.28139 17.2877 1.28139 17.535ZM17.2876 3.79933L20.3225 6.83422L18.6139 8.54274L15.5791 5.50786L17.2876 3.79933ZM3.14728 17.9396L14.2527 6.83422L17.2876 9.8691L6.18217 20.952L3.1248 20.9745L3.14728 17.9396Z" fill="#FF4A43"/>
</svg>
