<svg width="22" height="24" viewBox="0 0 22 24" fill="none" xmlns="http://www.w3.org/2000/svg">
<path d="M11 0C17.0654 0 22 4.93461 22 11C22 17.0654 17.0654 22 11 22C4.93461 22 0 17.0654 0 11C0 4.93461 4.93453 0 11 0ZM11 20.8108C13.6947 20.8108 16.1391 19.7185 17.9139 17.9537C18.6227 17.249 19.2243 16.4368 19.6928 15.5441C20.4063 14.1848 20.8108 12.6388 20.8108 11C20.8108 5.59031 16.4097 1.18921 11 1.18921C8.43407 1.18921 6.09549 2.17981 4.34543 3.79817C3.43807 4.63716 2.68879 5.64471 2.14852 6.77089C1.53385 8.05218 1.18921 9.48659 1.18921 11C1.18921 16.4097 5.59031 20.8108 11 20.8108Z" fill="black"/>
<path d="M14.5923 9.73657C13.9355 9.73657 13.4031 9.20414 13.4031 8.54736C13.4031 7.89058 13.9355 7.35815 14.5923 7.35815C15.2491 7.35815 15.7815 7.89058 15.7815 8.54736C15.7815 9.20414 15.2491 9.73657 14.5923 9.73657Z" fill="black"/>
<path d="M7.23413 9.73657C6.57735 9.73657 6.04493 9.20414 6.04493 8.54736C6.04493 7.89058 6.57735 7.35815 7.23413 7.35815C7.89091 7.35815 8.42334 7.89058 8.42334 8.54736C8.42334 9.20414 7.89091 9.73657 7.23413 9.73657Z" fill="black"/>
<path d="M11.021 17.0944C8.72029 17.0944 6.51543 15.9178 5.25301 13.9643L6.25187 13.3188C7.41112 15.1127 9.53155 16.1138 11.6548 15.8688C13.3094 15.678 14.8396 14.7247 15.748 13.3188L16.7468 13.9643C15.6476 15.6655 13.7949 16.8191 11.7911 17.0502C11.5339 17.0799 11.277 17.0944 11.021 17.0944Z" fill="black"/>
<circle cx="4.5" cy="20.5" r="3.5" fill="#FF4A43"/>
</svg>
