<svg width="20" height="20" viewBox="0 0 20 20" fill="none" xmlns="http://www.w3.org/2000/svg">
<path d="M9.36435 9.02338C9.61241 8.77532 9.61241 8.37222 9.36435 8.12415C9.11629 7.87609 8.71319 7.87609 8.46513 8.12415L5.10079 11.4885C4.52714 12.0621 4.21706 12.8063 4.21706 13.6125C4.21706 14.4187 4.52714 15.1629 5.10079 15.7366C6.27908 16.9149 8.18606 16.9149 9.34885 15.7366L16.9457 8.13966C17.7364 7.34896 18.1706 6.2947 18.1706 5.17842C18.1706 4.06214 17.7364 3.00787 16.9457 2.21718C15.3023 0.573766 12.6512 0.573766 11.0078 2.21718L3.42637 9.79857C2.40311 10.8218 1.84497 12.1707 1.84497 13.6125C1.84497 15.0544 2.40311 16.4187 3.42637 17.4265C4.44962 18.4497 5.79846 19.0079 7.24032 19.0079C8.68218 19.0079 10.0465 18.4497 11.0543 17.4265L14.4186 14.0621C14.6667 13.8141 14.6667 13.411 14.4186 13.1629C14.1706 12.9149 13.7675 12.9149 13.5194 13.1629L10.155 16.5273C9.37985 17.3024 8.3411 17.7366 7.24032 17.7366C6.13955 17.7366 5.10079 17.3024 4.32559 16.5273C3.5504 15.7521 3.11629 14.7133 3.11629 13.6125C3.11629 12.5118 3.5504 11.473 4.32559 10.6978L11.907 3.1164C12.4651 2.55826 13.1938 2.26369 13.969 2.26369C14.7442 2.26369 15.4884 2.57377 16.031 3.1164C16.5892 3.67454 16.8837 4.40322 16.8837 5.17842C16.8837 5.95361 16.5737 6.6978 16.031 7.24043L8.43412 14.8373C7.76745 15.504 6.66668 15.504 5.98451 14.8373C5.65892 14.5118 5.47288 14.0776 5.47288 13.6125C5.47288 13.1474 5.65892 12.7133 5.98451 12.3877L9.36435 9.02338Z" fill="black"/>
</svg>
